<mxfile host="Electron" modified="2024-06-12T23:43:39.144Z" agent="Mozilla/5.0 (Windows NT 10.0; Win64; x64) AppleWebKit/537.36 (KHTML, like Gecko) draw.io/21.2.8 Chrome/112.0.5615.165 Electron/24.2.0 Safari/537.36" etag="T_1X4PwfsOpSHsXSOKvX" version="21.2.8" type="device">
  <diagram name="Página-1" id="au5NeHQPtoDuIoEX__qe">
    <mxGraphModel dx="947" dy="469" grid="1" gridSize="10" guides="1" tooltips="1" connect="1" arrows="1" fold="1" page="1" pageScale="1" pageWidth="827" pageHeight="1169" math="0" shadow="0">
      <root>
        <mxCell id="0" />
        <mxCell id="1" parent="0" />
        <mxCell id="gjaR390okF2pYGV6d13h-1" value="&lt;h1&gt;Análisis 1B&lt;/h1&gt;" style="text;html=1;strokeColor=none;fillColor=none;spacing=5;spacingTop=-20;whiteSpace=wrap;overflow=hidden;rounded=0;" parent="1" vertex="1">
          <mxGeometry x="10" y="10" width="140" height="30" as="geometry" />
        </mxCell>
        <mxCell id="gjaR390okF2pYGV6d13h-2" value="&lt;ul&gt;&lt;li&gt;&lt;span style=&quot;background-color: initial;&quot;&gt;Shared está organizada en 32 bancos&lt;/span&gt;&lt;/li&gt;&lt;li&gt;&lt;span style=&quot;background-color: initial;&quot;&gt;1 warp (32 hilos) accede en un ciclo de reloj a los 32 bancos en paralelo.&lt;/span&gt;&lt;/li&gt;&lt;li&gt;&lt;span style=&quot;background-color: initial;&quot;&gt;Lo ideal sería que cada hilo accediera a un banco distinto.&lt;/span&gt;&lt;/li&gt;&lt;/ul&gt;" style="text;html=1;strokeColor=none;fillColor=none;align=left;verticalAlign=middle;whiteSpace=wrap;rounded=0;" parent="1" vertex="1">
          <mxGeometry y="80" width="290" height="160" as="geometry" />
        </mxCell>
        <mxCell id="m7yiOMy2Jc9i5ZWJ2ntB-1" value="00" style="rounded=0;whiteSpace=wrap;html=1;fillColor=#FFFF66;" parent="1" vertex="1">
          <mxGeometry x="320" y="320" width="40" height="40" as="geometry" />
        </mxCell>
        <mxCell id="m7yiOMy2Jc9i5ZWJ2ntB-2" value="11" style="rounded=0;whiteSpace=wrap;html=1;fillColor=#6666FF;" parent="1" vertex="1">
          <mxGeometry x="360" y="320" width="40" height="40" as="geometry" />
        </mxCell>
        <mxCell id="m7yiOMy2Jc9i5ZWJ2ntB-3" value="22" style="rounded=0;whiteSpace=wrap;html=1;fillColor=#FF66FF;" parent="1" vertex="1">
          <mxGeometry x="400" y="320" width="40" height="40" as="geometry" />
        </mxCell>
        <mxCell id="m7yiOMy2Jc9i5ZWJ2ntB-4" value="33" style="rounded=0;whiteSpace=wrap;html=1;fillColor=#FFB366;" parent="1" vertex="1">
          <mxGeometry x="440" y="320" width="40" height="40" as="geometry" />
        </mxCell>
        <mxCell id="m7yiOMy2Jc9i5ZWJ2ntB-9" value="Si coincide color coincide el banco" style="text;html=1;align=center;verticalAlign=middle;resizable=0;points=[];autosize=1;strokeColor=none;fillColor=none;" parent="1" vertex="1">
          <mxGeometry x="320" y="120" width="210" height="30" as="geometry" />
        </mxCell>
        <mxCell id="m7yiOMy2Jc9i5ZWJ2ntB-10" value="44" style="rounded=0;whiteSpace=wrap;html=1;fillColor=#FFFF66;" parent="1" vertex="1">
          <mxGeometry x="320" y="360" width="40" height="40" as="geometry" />
        </mxCell>
        <mxCell id="m7yiOMy2Jc9i5ZWJ2ntB-11" value="55" style="rounded=0;whiteSpace=wrap;html=1;fillColor=#6666FF;" parent="1" vertex="1">
          <mxGeometry x="360" y="360" width="40" height="40" as="geometry" />
        </mxCell>
        <mxCell id="m7yiOMy2Jc9i5ZWJ2ntB-12" value="66" style="rounded=0;whiteSpace=wrap;html=1;fillColor=#FF66FF;" parent="1" vertex="1">
          <mxGeometry x="400" y="360" width="40" height="40" as="geometry" />
        </mxCell>
        <mxCell id="m7yiOMy2Jc9i5ZWJ2ntB-13" value="77" style="rounded=0;whiteSpace=wrap;html=1;fillColor=#FFB366;" parent="1" vertex="1">
          <mxGeometry x="440" y="360" width="40" height="40" as="geometry" />
        </mxCell>
        <mxCell id="m7yiOMy2Jc9i5ZWJ2ntB-14" value="88" style="rounded=0;whiteSpace=wrap;html=1;fillColor=#FFFF66;" parent="1" vertex="1">
          <mxGeometry x="480" y="360" width="40" height="40" as="geometry" />
        </mxCell>
        <mxCell id="m7yiOMy2Jc9i5ZWJ2ntB-15" value="99" style="rounded=0;whiteSpace=wrap;html=1;fillColor=#6666FF;" parent="1" vertex="1">
          <mxGeometry x="560" y="370" width="40" height="40" as="geometry" />
        </mxCell>
        <mxCell id="m7yiOMy2Jc9i5ZWJ2ntB-16" value="119" style="rounded=0;whiteSpace=wrap;html=1;fillColor=#FF66FF;" parent="1" vertex="1">
          <mxGeometry x="320" y="400" width="40" height="40" as="geometry" />
        </mxCell>
        <mxCell id="m7yiOMy2Jc9i5ZWJ2ntB-17" value="121" style="rounded=0;whiteSpace=wrap;html=1;fillColor=#FFB366;" parent="1" vertex="1">
          <mxGeometry x="360" y="400" width="40" height="40" as="geometry" />
        </mxCell>
        <mxCell id="m7yiOMy2Jc9i5ZWJ2ntB-19" value="" style="rounded=0;whiteSpace=wrap;html=1;fillColor=#CCCCCC;" parent="1" vertex="1">
          <mxGeometry x="440" y="400" width="40" height="40" as="geometry" />
        </mxCell>
        <mxCell id="m7yiOMy2Jc9i5ZWJ2ntB-20" value="" style="rounded=0;whiteSpace=wrap;html=1;fillColor=#CCCCCC;" parent="1" vertex="1">
          <mxGeometry x="480" y="400" width="40" height="40" as="geometry" />
        </mxCell>
        <mxCell id="m7yiOMy2Jc9i5ZWJ2ntB-21" value="" style="rounded=0;whiteSpace=wrap;html=1;fillColor=#CCCCCC;" parent="1" vertex="1">
          <mxGeometry x="480" y="320" width="40" height="40" as="geometry" />
        </mxCell>
        <mxCell id="m7yiOMy2Jc9i5ZWJ2ntB-22" value="0" style="rounded=0;whiteSpace=wrap;html=1;fillColor=#FFFF66;" parent="1" vertex="1">
          <mxGeometry x="40" y="320" width="40" height="40" as="geometry" />
        </mxCell>
        <mxCell id="m7yiOMy2Jc9i5ZWJ2ntB-23" value="1" style="rounded=0;whiteSpace=wrap;html=1;fillColor=#6666FF;" parent="1" vertex="1">
          <mxGeometry x="80" y="320" width="40" height="40" as="geometry" />
        </mxCell>
        <mxCell id="m7yiOMy2Jc9i5ZWJ2ntB-24" value="..." style="rounded=0;whiteSpace=wrap;html=1;fillColor=#FF66FF;" parent="1" vertex="1">
          <mxGeometry x="120" y="320" width="40" height="40" as="geometry" />
        </mxCell>
        <mxCell id="m7yiOMy2Jc9i5ZWJ2ntB-25" value="31" style="rounded=0;whiteSpace=wrap;html=1;fillColor=#FFB366;" parent="1" vertex="1">
          <mxGeometry x="160" y="320" width="40" height="40" as="geometry" />
        </mxCell>
        <mxCell id="m7yiOMy2Jc9i5ZWJ2ntB-26" value="32" style="rounded=0;whiteSpace=wrap;html=1;fillColor=#FFFF66;" parent="1" vertex="1">
          <mxGeometry x="40" y="360" width="40" height="40" as="geometry" />
        </mxCell>
        <mxCell id="m7yiOMy2Jc9i5ZWJ2ntB-27" value="33" style="rounded=0;whiteSpace=wrap;html=1;fillColor=#6666FF;" parent="1" vertex="1">
          <mxGeometry x="80" y="360" width="40" height="40" as="geometry" />
        </mxCell>
        <mxCell id="m7yiOMy2Jc9i5ZWJ2ntB-28" value="..." style="rounded=0;whiteSpace=wrap;html=1;fillColor=#FF66FF;" parent="1" vertex="1">
          <mxGeometry x="120" y="360" width="40" height="40" as="geometry" />
        </mxCell>
        <mxCell id="m7yiOMy2Jc9i5ZWJ2ntB-29" value="63" style="rounded=0;whiteSpace=wrap;html=1;fillColor=#FFB366;" parent="1" vertex="1">
          <mxGeometry x="160" y="360" width="40" height="40" as="geometry" />
        </mxCell>
        <mxCell id="m7yiOMy2Jc9i5ZWJ2ntB-30" value="64" style="rounded=0;whiteSpace=wrap;html=1;fillColor=#FFFF66;" parent="1" vertex="1">
          <mxGeometry x="40" y="400" width="40" height="40" as="geometry" />
        </mxCell>
        <mxCell id="m7yiOMy2Jc9i5ZWJ2ntB-31" value="65" style="rounded=0;whiteSpace=wrap;html=1;fillColor=#6666FF;" parent="1" vertex="1">
          <mxGeometry x="80" y="400" width="40" height="40" as="geometry" />
        </mxCell>
        <mxCell id="m7yiOMy2Jc9i5ZWJ2ntB-32" value="..." style="rounded=0;whiteSpace=wrap;html=1;fillColor=#FF66FF;" parent="1" vertex="1">
          <mxGeometry x="120" y="400" width="40" height="40" as="geometry" />
        </mxCell>
        <mxCell id="m7yiOMy2Jc9i5ZWJ2ntB-33" value="95" style="rounded=0;whiteSpace=wrap;html=1;fillColor=#FFB366;" parent="1" vertex="1">
          <mxGeometry x="160" y="400" width="40" height="40" as="geometry" />
        </mxCell>
        <mxCell id="m7yiOMy2Jc9i5ZWJ2ntB-34" value="" style="rounded=0;whiteSpace=wrap;html=1;fillColor=#CCCCCC;" parent="1" vertex="1">
          <mxGeometry x="200" y="320" width="40" height="40" as="geometry" />
        </mxCell>
        <mxCell id="m7yiOMy2Jc9i5ZWJ2ntB-35" value="" style="rounded=0;whiteSpace=wrap;html=1;fillColor=#CCCCCC;" parent="1" vertex="1">
          <mxGeometry x="200" y="360" width="40" height="40" as="geometry" />
        </mxCell>
        <mxCell id="m7yiOMy2Jc9i5ZWJ2ntB-36" value="" style="rounded=0;whiteSpace=wrap;html=1;fillColor=#CCCCCC;" parent="1" vertex="1">
          <mxGeometry x="200" y="400" width="40" height="40" as="geometry" />
        </mxCell>
        <mxCell id="m7yiOMy2Jc9i5ZWJ2ntB-37" value="" style="shape=flexArrow;endArrow=classic;html=1;rounded=0;" parent="1" edge="1">
          <mxGeometry width="50" height="50" relative="1" as="geometry">
            <mxPoint x="250" y="380" as="sourcePoint" />
            <mxPoint x="310" y="380" as="targetPoint" />
          </mxGeometry>
        </mxCell>
        <mxCell id="m7yiOMy2Jc9i5ZWJ2ntB-38" value="gris= dummy" style="text;html=1;strokeColor=none;fillColor=none;align=center;verticalAlign=middle;whiteSpace=wrap;rounded=0;" parent="1" vertex="1">
          <mxGeometry x="170" y="290" width="100" height="30" as="geometry" />
        </mxCell>
        <mxCell id="flb9O7_30-OMjsNU3YUJ-1" value="0" style="rounded=0;whiteSpace=wrap;html=1;fillColor=#FFFF66;" vertex="1" parent="1">
          <mxGeometry x="40" y="480" width="40" height="40" as="geometry" />
        </mxCell>
        <mxCell id="flb9O7_30-OMjsNU3YUJ-2" value="1" style="rounded=0;whiteSpace=wrap;html=1;fillColor=#6666FF;" vertex="1" parent="1">
          <mxGeometry x="80" y="480" width="40" height="40" as="geometry" />
        </mxCell>
        <mxCell id="flb9O7_30-OMjsNU3YUJ-3" value="..." style="rounded=0;whiteSpace=wrap;html=1;fillColor=#FF66FF;" vertex="1" parent="1">
          <mxGeometry x="120" y="480" width="40" height="40" as="geometry" />
        </mxCell>
        <mxCell id="flb9O7_30-OMjsNU3YUJ-4" value="31" style="rounded=0;whiteSpace=wrap;html=1;fillColor=#FFB366;" vertex="1" parent="1">
          <mxGeometry x="160" y="480" width="40" height="40" as="geometry" />
        </mxCell>
        <mxCell id="flb9O7_30-OMjsNU3YUJ-5" value="32" style="rounded=0;whiteSpace=wrap;html=1;fillColor=#FFFF66;" vertex="1" parent="1">
          <mxGeometry x="40" y="520" width="40" height="40" as="geometry" />
        </mxCell>
        <mxCell id="flb9O7_30-OMjsNU3YUJ-6" value="33" style="rounded=0;whiteSpace=wrap;html=1;fillColor=#6666FF;" vertex="1" parent="1">
          <mxGeometry x="80" y="520" width="40" height="40" as="geometry" />
        </mxCell>
        <mxCell id="flb9O7_30-OMjsNU3YUJ-7" value="..." style="rounded=0;whiteSpace=wrap;html=1;fillColor=#FF66FF;" vertex="1" parent="1">
          <mxGeometry x="120" y="520" width="40" height="40" as="geometry" />
        </mxCell>
        <mxCell id="flb9O7_30-OMjsNU3YUJ-8" value="63" style="rounded=0;whiteSpace=wrap;html=1;fillColor=#FFB366;" vertex="1" parent="1">
          <mxGeometry x="160" y="520" width="40" height="40" as="geometry" />
        </mxCell>
        <mxCell id="flb9O7_30-OMjsNU3YUJ-9" value="64" style="rounded=0;whiteSpace=wrap;html=1;fillColor=#FFFF66;" vertex="1" parent="1">
          <mxGeometry x="40" y="560" width="40" height="40" as="geometry" />
        </mxCell>
        <mxCell id="flb9O7_30-OMjsNU3YUJ-10" value="65" style="rounded=0;whiteSpace=wrap;html=1;fillColor=#6666FF;" vertex="1" parent="1">
          <mxGeometry x="80" y="560" width="40" height="40" as="geometry" />
        </mxCell>
        <mxCell id="flb9O7_30-OMjsNU3YUJ-11" value="..." style="rounded=0;whiteSpace=wrap;html=1;fillColor=#FF66FF;" vertex="1" parent="1">
          <mxGeometry x="120" y="560" width="40" height="40" as="geometry" />
        </mxCell>
        <mxCell id="flb9O7_30-OMjsNU3YUJ-12" value="95" style="rounded=0;whiteSpace=wrap;html=1;fillColor=#FFB366;" vertex="1" parent="1">
          <mxGeometry x="160" y="560" width="40" height="40" as="geometry" />
        </mxCell>
        <mxCell id="flb9O7_30-OMjsNU3YUJ-28" value="0" style="rounded=0;whiteSpace=wrap;html=1;fillColor=#FFFF66;" vertex="1" parent="1">
          <mxGeometry x="60" y="640" width="40" height="40" as="geometry" />
        </mxCell>
        <mxCell id="flb9O7_30-OMjsNU3YUJ-29" value="1" style="rounded=0;whiteSpace=wrap;html=1;fillColor=#6666FF;" vertex="1" parent="1">
          <mxGeometry x="100" y="640" width="40" height="40" as="geometry" />
        </mxCell>
        <mxCell id="flb9O7_30-OMjsNU3YUJ-30" value="..." style="rounded=0;whiteSpace=wrap;html=1;fillColor=#FF66FF;" vertex="1" parent="1">
          <mxGeometry x="140" y="640" width="40" height="40" as="geometry" />
        </mxCell>
        <mxCell id="flb9O7_30-OMjsNU3YUJ-31" value="31" style="rounded=0;whiteSpace=wrap;html=1;fillColor=#FFB366;" vertex="1" parent="1">
          <mxGeometry x="180" y="640" width="40" height="40" as="geometry" />
        </mxCell>
        <mxCell id="flb9O7_30-OMjsNU3YUJ-33" value="34" style="rounded=0;whiteSpace=wrap;html=1;fillColor=#66FF66;" vertex="1" parent="1">
          <mxGeometry x="100" y="680" width="40" height="40" as="geometry" />
        </mxCell>
        <mxCell id="flb9O7_30-OMjsNU3YUJ-34" value="..." style="rounded=0;whiteSpace=wrap;html=1;fillColor=#FF66FF;" vertex="1" parent="1">
          <mxGeometry x="140" y="680" width="40" height="40" as="geometry" />
        </mxCell>
        <mxCell id="flb9O7_30-OMjsNU3YUJ-36" value="66" style="rounded=0;whiteSpace=wrap;html=1;fillColor=#66FF66;" vertex="1" parent="1">
          <mxGeometry x="60" y="720" width="40" height="40" as="geometry" />
        </mxCell>
        <mxCell id="flb9O7_30-OMjsNU3YUJ-37" value="67" style="rounded=0;whiteSpace=wrap;html=1;fillColor=#FF6666;" vertex="1" parent="1">
          <mxGeometry x="100" y="720" width="40" height="40" as="geometry" />
        </mxCell>
        <mxCell id="flb9O7_30-OMjsNU3YUJ-38" value="..." style="rounded=0;whiteSpace=wrap;html=1;fillColor=#FF66FF;" vertex="1" parent="1">
          <mxGeometry x="140" y="720" width="40" height="40" as="geometry" />
        </mxCell>
        <mxCell id="flb9O7_30-OMjsNU3YUJ-39" value="97" style="rounded=0;whiteSpace=wrap;html=1;fillColor=#B266FF;" vertex="1" parent="1">
          <mxGeometry x="180" y="720" width="40" height="40" as="geometry" />
        </mxCell>
        <mxCell id="flb9O7_30-OMjsNU3YUJ-42" value="98" style="rounded=0;whiteSpace=wrap;html=1;fillColor=#66FF66;" vertex="1" parent="1">
          <mxGeometry x="220" y="720" width="40" height="40" as="geometry" />
        </mxCell>
        <mxCell id="flb9O7_30-OMjsNU3YUJ-43" value="64" style="rounded=0;whiteSpace=wrap;html=1;fillColor=#FFFF66;" vertex="1" parent="1">
          <mxGeometry x="180" y="680" width="40" height="40" as="geometry" />
        </mxCell>
        <mxCell id="flb9O7_30-OMjsNU3YUJ-44" value="32" style="rounded=0;whiteSpace=wrap;html=1;fillColor=#FFFF66;" vertex="1" parent="1">
          <mxGeometry x="220" y="640" width="40" height="40" as="geometry" />
        </mxCell>
        <mxCell id="flb9O7_30-OMjsNU3YUJ-45" value="33" style="rounded=0;whiteSpace=wrap;html=1;fillColor=#6666FF;" vertex="1" parent="1">
          <mxGeometry x="60" y="680" width="40" height="40" as="geometry" />
        </mxCell>
        <mxCell id="flb9O7_30-OMjsNU3YUJ-47" value="65" style="rounded=0;whiteSpace=wrap;html=1;fillColor=#6666FF;" vertex="1" parent="1">
          <mxGeometry x="220" y="680" width="40" height="40" as="geometry" />
        </mxCell>
      </root>
    </mxGraphModel>
  </diagram>
</mxfile>
